<svg xmlns="http://www.w3.org/2000/svg" viewBox="0 0 100 88" width="32" height="32">
  <defs>
    <clipPath id="c">
      <path d="M0,0 L100,0 L100,86 L68,86 Q50,42 32,86 L0,86 Z"/>
    </clipPath>
  </defs>
  <rect x="1" y="18" width="49" height="68" fill="#1A1916" clip-path="url(#c)"/>
  <rect x="50" y="18" width="49" height="68" fill="#8B1A1A" clip-path="url(#c)"/>
  <path d="M50,18 Q33,2 9,7"   stroke="rgba(255,255,255,.85)" stroke-width="2.8" fill="none" stroke-linecap="round"/>
  <path d="M50,18 Q31,6 7,13"  stroke="rgba(255,255,255,.52)" stroke-width="2"   fill="none" stroke-linecap="round"/>
  <path d="M50,18 Q30,11 6,20" stroke="rgba(255,255,255,.26)" stroke-width="1.4" fill="none" stroke-linecap="round"/>
  <path d="M50,18 Q67,2 91,7"  stroke="rgba(255,255,255,.7)"  stroke-width="2.8" fill="none" stroke-linecap="round"/>
  <path d="M50,18 Q69,6 93,13" stroke="rgba(255,255,255,.42)" stroke-width="2"   fill="none" stroke-linecap="round"/>
  <path d="M50,18 Q70,11 94,20" stroke="rgba(255,255,255,.2)" stroke-width="1.4" fill="none" stroke-linecap="round"/>
</svg>
